<?xml version="1.0" standalone="no"?>
<!DOCTYPE svg PUBLIC "-//W3C//DTD SVG 20010904//EN"
 "http://www.w3.org/TR/2001/REC-SVG-20010904/DTD/svg10.dtd">
<svg version="1.0" xmlns="http://www.w3.org/2000/svg"
 width="225.000000pt" height="225.000000pt" viewBox="0 0 225.000000 225.000000"
 preserveAspectRatio="xMidYMid meet">

<g transform="translate(0.000000,225.000000) scale(0.100000,-0.100000)"
fill="#000000" stroke="none">
<path d="M342 1742 c-18 -12 -28 -13 -49 -3 -23 10 -25 10 -18 -6 5 -10 7 -36
6 -58 -6 -114 -5 -1055 2 -1055 4 0 7 15 8 33 0 26 2 29 9 12 5 -13 3 -28 -6
-42 -9 -15 -10 -23 -4 -23 6 0 9 -4 6 -9 -3 -4 3 -16 14 -26 18 -16 25 -14 21
8 0 4 4 7 9 7 6 0 10 -7 10 -15 0 -9 6 -12 15 -9 8 4 15 10 15 16 0 5 -4 7 -9
4 -16 -10 -43 31 -36 55 4 12 3 19 -1 16 -5 -3 -6 63 -2 146 3 84 4 167 1 185
-3 20 -1 32 6 32 16 0 13 49 -4 66 -8 9 -15 26 -15 39 0 18 4 23 15 19 12 -5
15 3 15 42 0 30 -4 44 -9 36 -4 -7 -6 -24 -3 -38 2 -14 0 -24 -7 -24 -7 0 -11
23 -11 61 0 50 3 60 15 55 17 -6 20 15 5 30 -14 14 -16 133 -6 265 9 110 4
151 -15 132 -7 -7 -7 -17 3 -32 11 -18 11 -23 -1 -30 -12 -8 -13 -71 -8 -415
4 -257 3 -406 -3 -406 -12 0 -13 49 -10 525 1 239 5 362 12 366 7 5 6 9 -3 12
-8 2 -6 3 4 2 9 -2 17 0 17 5 0 4 6 10 13 13 11 4 14 -85 16 -510 2 -365 -1
-513 -8 -508 -7 3 -11 -2 -11 -14 0 -12 5 -21 11 -21 6 0 9 -9 6 -20 -3 -13
-1 -18 6 -13 6 4 8 0 4 -9 -3 -9 0 -21 6 -27 12 -12 -3 -16 -19 -3 -5 4 4 -5
19 -20 16 -16 26 -32 23 -37 -3 -5 10 -12 29 -15 44 -9 38 -24 -7 -18 -25 3
-30 1 -22 -7 6 -7 30 -11 55 -9 34 2 45 7 48 23 3 17 2 18 -15 5 -10 -8 -15
-10 -11 -3 5 7 -4 14 -23 18 -16 4 -30 11 -30 16 0 6 4 7 10 4 6 -4 7 1 4 12
-5 16 -4 16 10 -1 12 -15 18 -17 30 -7 11 9 15 9 19 -1 4 -9 6 -10 6 -1 1 16
-25 29 -75 37 -22 4 -42 13 -44 19 -2 7 -6 265 -9 573 l-6 561 -23 -15z m-55
-264 c-2 -13 -4 -5 -4 17 -1 22 1 32 4 23 2 -10 2 -28 0 -40z m39 -879 c3 -6
2 -15 -4 -21 -6 -6 -12 -6 -16 1 -4 6 -1 11 6 11 9 0 9 3 -2 10 -9 6 -10 10
-3 10 6 0 15 -5 19 -11z m89 -8 c9 -16 -9 -20 -23 -5 -10 12 -10 14 2 14 8 0
17 -4 21 -9z"/>
<path d="M335 1710 c-3 -5 -1 -10 4 -10 6 0 11 5 11 10 0 6 -2 10 -4 10 -3 0
-8 -4 -11 -10z"/>
<path d="M343 1410 c0 -25 2 -35 4 -22 2 12 2 32 0 45 -2 12 -4 2 -4 -23z"/>
<path d="M823 1228 c-18 -9 -23 -20 -23 -48 0 -20 3 -40 7 -44 4 -3 7 -15 8
-26 2 -27 47 -89 60 -84 14 6 15 34 2 34 -6 0 -7 3 -4 7 4 3 16 -2 27 -12 11
-10 20 -13 20 -8 0 23 31 23 40 0 5 -13 9 -16 9 -7 1 12 9 15 36 12 43 -5 54
-19 23 -31 -35 -13 -88 -2 -81 17 5 10 2 13 -6 8 -7 -5 -10 -14 -7 -22 7 -18
-6 -25 -24 -13 -13 7 -13 9 -1 9 8 0 12 2 9 5 -3 3 -13 3 -22 -1 -13 -5 -14
-9 -5 -20 6 -8 15 -11 20 -8 5 3 9 1 9 -4 0 -11 50 -35 58 -27 3 3 1 5 -4 5
-6 0 -19 7 -30 15 -18 15 -18 15 0 8 13 -4 17 -3 12 5 -12 20 22 14 44 -8 25
-25 25 -31 3 -24 -10 2 -8 -1 5 -7 16 -9 28 -9 46 -1 50 22 19 102 -39 102
-27 0 -81 34 -95 60 -6 11 -14 39 -18 62 -4 23 -12 43 -18 45 -17 6 -15 -54 2
-61 7 -3 11 -12 8 -20 -3 -8 0 -17 5 -21 6 -3 9 -11 6 -16 -4 -5 1 -9 9 -9 9
0 16 -5 16 -11 0 -6 -7 -8 -16 -5 -15 6 -15 4 -3 -11 11 -13 11 -15 1 -9 -7 4
-18 19 -23 33 -8 22 -11 23 -26 12 -10 -8 -14 -9 -10 -2 4 7 -1 14 -13 18 -15
5 -19 12 -15 26 4 11 2 19 -4 19 -6 0 -11 10 -11 23 0 18 2 19 10 7 8 -13 10
-13 10 2 0 9 8 22 18 27 23 14 3 13 -25 -1z m13 -117 c-7 -11 22 -23 37 -15 7
3 5 -1 -5 -8 -12 -11 -14 -18 -6 -32 8 -14 7 -17 -1 -12 -16 10 -41 62 -34 70
9 9 15 7 9 -3z m224 -91 c-13 -9 -13 -11 0 -20 13 -8 12 -12 -4 -27 -18 -16
-19 -16 -7 0 12 14 11 17 -3 17 -14 0 -15 4 -6 20 6 11 16 20 23 20 8 0 6 -4
-3 -10z"/>
<path d="M850 1173 c3 -27 10 -48 15 -48 6 0 17 -4 25 -10 13 -7 13 -6 2 8 -8
9 -11 21 -7 27 3 5 2 10 -4 10 -5 0 -12 -8 -14 -17 -3 -10 -5 3 -6 30 0 26 -5
47 -9 47 -4 0 -5 -21 -2 -47z"/>
<path d="M471 1059 c-1 -58 3 -80 15 -90 14 -11 15 -9 9 24 -6 33 -4 38 16 46
13 5 18 10 10 10 -8 1 -12 4 -9 7 3 3 15 0 27 -7 15 -10 17 -16 9 -26 -6 -7
-16 -13 -22 -13 -6 0 -11 -11 -11 -25 2 -34 15 -45 15 -12 0 19 5 27 17 27 13
0 14 -3 5 -12 -17 -17 -15 -33 3 -18 18 15 22 156 5 145 -6 -4 -8 -10 -5 -15
3 -5 -4 -14 -15 -20 -15 -8 -25 -8 -39 2 -10 7 -19 16 -19 21 0 4 -3 13 -5 20
-3 6 -6 -22 -6 -64z m29 -13 c0 -3 -4 -8 -10 -11 -5 -3 -10 -1 -10 4 0 6 5 11
10 11 6 0 10 -2 10 -4z"/>
<path d="M303 1010 c0 -25 2 -35 4 -22 2 12 2 32 0 45 -2 12 -4 2 -4 -23z"/>
<path d="M370 551 c-8 -6 -18 -7 -23 -4 -5 3 -8 0 -6 -6 3 -7 8 -12 13 -11 5
1 12 -4 16 -10 5 -7 9 -2 12 14 3 14 5 26 4 26 0 0 -8 -4 -16 -9z"/>
<path d="M830 345 c0 -8 -6 -15 -12 -15 -9 -1 -8 -4 2 -13 10 -8 14 -25 12
-51 -2 -26 0 -36 8 -31 7 4 9 24 6 50 -4 38 -2 43 12 39 14 -5 14 -4 -1 6 -9
6 -15 15 -12 21 4 5 1 9 -4 9 -6 0 -11 -7 -11 -15z"/>
<path d="M1037 340 c-3 -11 -2 -20 2 -20 3 0 5 -17 3 -38 -4 -37 19 -74 35
-58 4 4 1 11 -6 16 -18 10 -17 70 1 81 10 7 10 9 1 9 -7 0 -13 7 -13 15 0 22
-17 18 -23 -5z"/>
<path d="M1331 315 c-1 -38 -1 -39 15 -17 30 43 57 25 56 -39 -1 -21 3 -39 9
-39 10 0 12 69 3 94 -7 19 -50 21 -60 4 -6 -9 -10 -5 -15 12 -6 21 -7 18 -8
-15z"/>
<path d="M320 271 c0 -40 3 -52 11 -44 6 6 10 29 7 51 -2 22 0 38 4 36 4 -3
16 -1 25 5 15 8 12 10 -14 9 l-33 -1 0 -56z"/>
<path d="M402 318 c-17 -17 -15 -64 4 -82 16 -17 33 -20 58 -10 28 11 17 23
-13 14 -24 -7 -30 -5 -39 14 -9 20 -7 21 28 18 43 -4 56 8 40 38 -12 23 -59
27 -78 8z m64 -13 c17 -16 13 -18 -26 -15 -30 2 -34 5 -25 19 9 16 34 13 51
-4z"/>
<path d="M511 270 c-2 -64 16 -60 21 5 3 35 6 40 28 41 23 1 25 -2 22 -32 -2
-19 -1 -42 4 -51 6 -13 10 -4 13 32 5 45 9 50 31 51 23 1 25 -2 25 -43 0 -25
3 -47 8 -50 4 -3 7 19 5 49 l-3 53 -76 0 -76 1 -2 -56z"/>
<path d="M705 307 c-9 -35 -2 -72 13 -69 6 1 12 -2 12 -8 0 -15 36 -12 50 5 7
8 9 15 5 15 -4 0 -3 6 2 13 5 6 7 23 4 37 -6 20 -14 26 -44 28 -31 3 -37 0
-42 -21z m65 -2 c7 -8 10 -25 6 -40 -5 -20 -12 -25 -34 -23 -24 2 -28 6 -27
28 3 49 30 66 55 35z"/>
<path d="M900 315 c-15 -18 -7 -19 20 -3 15 10 22 10 32 0 16 -16 7 -23 -31
-24 -49 -2 -36 -18 14 -18 37 0 45 3 45 18 0 39 -55 57 -80 27z"/>
<path d="M1110 311 c-13 -25 -13 -61 1 -61 5 0 8 -4 5 -9 -6 -9 16 -21 40 -21
22 0 16 18 -8 22 -38 5 -33 28 6 28 41 0 47 7 35 38 -11 29 -63 31 -79 3z m66
-8 c10 -16 7 -18 -26 -18 -33 0 -37 2 -29 18 5 9 17 17 27 17 9 0 22 -8 28
-17z"/>
<path d="M1229 326 c-3 -13 -6 -22 -13 -39 -5 -11 -2 -27 8 -42 17 -25 31 -30
60 -19 27 10 18 21 -14 16 -25 -4 -30 0 -36 23 -9 38 18 65 47 47 18 -11 20
-11 17 0 -4 13 -67 25 -69 14z"/>
<path d="M1332 245 c0 -16 2 -22 5 -12 2 9 2 23 0 30 -3 6 -5 -1 -5 -18z"/>
<path d="M890 250 c0 -16 41 -32 66 -26 40 10 27 24 -18 19 -29 -4 -39 -3 -34
5 4 7 2 12 -3 12 -6 0 -11 -4 -11 -10z"/>
<path d="M850 230 c0 -5 5 -10 10 -10 6 0 10 5 10 10 0 6 -4 10 -10 10 -5 0
-10 -4 -10 -10z"/>
</g>
</svg>
